<svg width="70" height="70" viewBox="0 0 70 70" fill="none" xmlns="http://www.w3.org/2000/svg">
<rect width="70" height="70" rx="35" fill="#00C489" fill-opacity="0.1"/>
<path d="M25.2933 31.802L29.9886 25.4494C33.0236 21.343 34.5412 19.2899 35.957 19.7237C37.3728 20.1576 37.3728 22.6758 37.3728 27.7123V28.1871C37.3728 30.0037 37.3728 30.9119 37.9532 31.4816L37.9839 31.5112C38.5769 32.0688 39.5222 32.0688 41.4128 32.0688C44.8151 32.0688 46.5162 32.0688 47.0912 33.1007C47.1007 33.1178 47.1099 33.135 47.1189 33.1523C47.6617 34.2002 46.6767 35.5328 44.7067 38.1981L40.0115 44.5506C36.9764 48.657 35.4588 50.7102 34.043 50.2763C32.6272 49.8424 32.6272 47.3241 32.6273 42.2877L32.6273 41.813C32.6273 39.9964 32.6274 39.0882 32.0469 38.5184L32.0162 38.4889C31.4233 37.9312 30.4779 37.9312 28.5873 37.9312C25.185 37.9312 23.4839 37.9312 22.909 36.8994C22.8994 36.8823 22.8902 36.8651 22.8812 36.8477C22.3385 35.7999 23.3234 34.4673 25.2933 31.802Z" fill="#00C389"/>
</svg>
