<svg width="70" height="70" viewBox="0 0 70 70" fill="none" xmlns="http://www.w3.org/2000/svg">
<rect width="70" height="70" rx="35" fill="#42AAFF" fill-opacity="0.1"/>
<path d="M48.7099 29.1562C49.5995 30.0352 49.9821 31.142 50.161 32.4564C50.3332 33.7225 50.3332 35.3322 50.3332 37.3294V37.4896C50.3332 39.4868 50.3332 41.0965 50.161 42.3626C49.9821 43.677 49.5995 44.7838 48.7099 45.6628C47.8204 46.5418 46.7003 46.9198 45.3701 47.0966C44.0888 47.2668 42.4597 47.2668 40.4385 47.2667H32.8869C30.8658 47.2668 29.2367 47.2668 27.9554 47.0966C26.6251 46.9198 25.5051 46.5418 24.6155 45.6628C24.0758 45.1295 23.7227 44.5124 23.4885 43.816C24.8247 43.9814 26.4779 43.9813 28.3879 43.9812H36.0692C38.0344 43.9813 39.7276 43.9814 41.0836 43.8012C42.5367 43.6082 43.9297 43.1728 45.0595 42.0564C46.1893 40.94 46.6299 39.5636 46.8253 38.1277C47.0076 36.7879 47.0075 35.1148 47.0074 33.1729V32.8845C47.0075 30.9967 47.0076 29.3629 46.8401 28.0423C47.5452 28.2737 48.17 28.6227 48.7099 29.1562Z" fill="#1864FF"/>
<path d="M32.2285 30.4731C30.8002 30.4731 29.6422 31.6173 29.6422 33.0287C29.6422 34.4401 30.8002 35.5843 32.2285 35.5843C33.6569 35.5843 34.8148 34.4401 34.8148 33.0287C34.8148 31.6173 33.6569 30.4731 32.2285 30.4731Z" fill="#1864FF"/>
<path fill-rule="evenodd" clip-rule="evenodd" d="M20.9651 25.5499C19.6665 26.833 19.6665 28.8983 19.6665 33.0287C19.6665 37.1591 19.6665 39.2244 20.9651 40.5075C22.2637 41.7907 24.3537 41.7907 28.5338 41.7907H35.9232C40.1033 41.7907 42.1934 41.7907 43.492 40.5075C44.7906 39.2244 44.7906 37.1591 44.7906 33.0287C44.7906 28.8983 44.7906 26.833 43.492 25.5499C42.1934 24.2667 40.1033 24.2667 35.9232 24.2667H28.5338C24.3537 24.2667 22.2637 24.2667 20.9651 25.5499ZM27.4254 33.0287C27.4254 30.4075 29.5758 28.2826 32.2285 28.2826C34.8812 28.2826 37.0317 30.4075 37.0317 33.0287C37.0317 35.6499 34.8812 37.7748 32.2285 37.7748C29.5758 37.7748 27.4254 35.6499 27.4254 33.0287ZM40.3569 37.0446C39.7447 37.0446 39.2485 36.5542 39.2485 35.9494V30.108C39.2485 29.5032 39.7447 29.0128 40.3569 29.0128C40.9691 29.0128 41.4653 29.5032 41.4653 30.108V35.9494C41.4653 36.5542 40.9691 37.0446 40.3569 37.0446ZM22.9917 35.9494C22.9917 36.5542 23.488 37.0446 24.1002 37.0446C24.7123 37.0446 25.2086 36.5542 25.2086 35.9494L25.2086 30.108C25.2086 29.5032 24.7123 29.0128 24.1002 29.0128C23.488 29.0128 22.9917 29.5032 22.9917 30.108L22.9917 35.9494Z" fill="#1864FF"/>
</svg>
