<svg width="70" height="70" viewBox="0 0 70 70" fill="none" xmlns="http://www.w3.org/2000/svg">
<rect width="70" height="70" rx="35" fill="#FFA842" fill-opacity="0.14"/>
<path d="M30.6347 24.8929C32.5769 21.4087 33.548 19.6667 34.9998 19.6667C36.4517 19.6667 37.4228 21.4087 39.365 24.8929L39.8675 25.7942C40.4194 26.7843 40.6953 27.2794 41.1256 27.606C41.5559 27.9326 42.0917 28.0539 43.1635 28.2964L44.1392 28.5171C47.9107 29.3705 49.7965 29.7971 50.2451 31.2399C50.6938 32.6826 49.4082 34.1859 46.837 37.1926L46.1718 37.9704C45.4412 38.8248 45.0759 39.252 44.9115 39.7805C44.7472 40.309 44.8024 40.879 44.9129 42.0189L45.0134 43.0568C45.4022 47.0683 45.5965 49.074 44.4219 49.9657C43.2474 50.8573 41.4817 50.0444 37.9505 48.4185L37.0369 47.9978C36.0334 47.5358 35.5317 47.3048 34.9998 47.3048C34.468 47.3048 33.9663 47.5358 32.9628 47.9978L32.0492 48.4185C28.5179 50.0444 26.7523 50.8573 25.5777 49.9657C24.4032 49.074 24.5975 47.0683 24.9862 43.0568L25.0868 42.0189C25.1973 40.879 25.2525 40.309 25.0882 39.7805C24.9238 39.252 24.5585 38.8248 23.8278 37.9704L23.1627 37.1926C20.5915 34.1859 19.3059 32.6826 19.7545 31.2399C20.2032 29.7971 22.089 29.3705 25.8605 28.5171L26.8362 28.2964C27.9079 28.0539 28.4438 27.9326 28.8741 27.606C29.3044 27.2794 29.5803 26.7843 30.1322 25.7942L30.6347 24.8929Z" fill="#FFA842"/>
</svg>
