<svg width="70" height="70" viewBox="0 0 70 70" fill="none" xmlns="http://www.w3.org/2000/svg">
<rect width="70" height="70" rx="35" fill="#9747FF" fill-opacity="0.1"/>
<path d="M40.3666 28.1C40.3666 31.0639 37.9639 33.4667 35 33.4667C32.036 33.4667 29.6333 31.0639 29.6333 28.1C29.6333 25.1361 32.036 22.7333 35 22.7333C37.9639 22.7333 40.3666 25.1361 40.3666 28.1Z" fill="#9747FF"/>
<path d="M44.1998 41.9C44.1998 44.8639 40.0808 47.2667 34.9998 47.2667C29.9188 47.2667 25.7998 44.8639 25.7998 41.9C25.7998 38.9361 29.9188 36.5333 34.9998 36.5333C40.0808 36.5333 44.1998 38.9361 44.1998 41.9Z" fill="#9747FF"/>
<path d="M27.5203 24.2667C27.7924 24.2667 28.0581 24.2934 28.3146 24.3442C27.6897 25.4542 27.3332 26.7354 27.3332 28.1C27.3332 29.4313 27.6725 30.6834 28.2694 31.7744C28.0269 31.8196 27.7765 31.8433 27.5203 31.8433C25.3515 31.8433 23.5934 30.1472 23.5934 28.055C23.5934 25.9627 25.3515 24.2667 27.5203 24.2667Z" fill="#9747FF"/>
<path d="M24.9524 45.7118C24.0816 44.6709 23.4998 43.3935 23.4998 41.9C23.4998 40.4522 24.0466 39.2074 24.8734 38.1843C21.9529 38.4108 19.6665 40.0082 19.6665 41.9451C19.6665 43.9001 21.993 45.5092 24.9524 45.7118Z" fill="#9747FF"/>
<path d="M42.6665 28.1C42.6665 29.4313 42.3271 30.6834 41.7302 31.7744C41.9727 31.8196 42.2232 31.8433 42.4793 31.8433C44.6481 31.8433 46.4062 30.1472 46.4062 28.055C46.4062 25.9627 44.6481 24.2667 42.4793 24.2667C42.2072 24.2667 41.9416 24.2934 41.6851 24.3442C42.31 25.4542 42.6665 26.7354 42.6665 28.1Z" fill="#9747FF"/>
<path d="M45.0472 45.7118C48.0066 45.5092 50.3331 43.9001 50.3331 41.9451C50.3331 40.0082 48.0468 38.4108 45.1263 38.1843C45.9531 39.2074 46.4998 40.4522 46.4998 41.9C46.4998 43.3935 45.918 44.6709 45.0472 45.7118Z" fill="#9747FF"/>
</svg>
