<svg width="70" height="70" viewBox="0 0 70 70" fill="none" xmlns="http://www.w3.org/2000/svg">
<rect width="70" height="70" rx="35" fill="#F72F1E" fill-opacity="0.1"/>
<path d="M22.393 22.2041C22.1154 22.7575 21.9788 23.4401 21.7058 24.8054L20.789 29.3895C20.2085 32.292 22.4285 35 25.3885 35C27.7984 35 29.8161 33.174 30.0559 30.7761L30.1617 29.7179C29.9117 32.5525 32.1459 35 34.9998 35C37.8732 35 40.1184 32.5191 39.8325 29.66L39.9444 30.7761C40.1842 33.174 42.202 35 44.6118 35C47.5718 35 49.7919 32.292 49.2114 29.3895L48.2946 24.8054C48.0215 23.4401 47.885 22.7575 47.6074 22.2041C47.0225 21.0381 45.97 20.1753 44.7119 19.8304C44.1148 19.6667 43.4187 19.6667 42.0264 19.6667H38.8332H27.974C26.5817 19.6667 25.8855 19.6667 25.2885 19.8304C24.0304 20.1753 22.9779 21.0381 22.393 22.2041Z" fill="#F72F1E"/>
<path d="M44.6118 37.2999C45.8648 37.2999 47.0288 36.9743 48.0335 36.409V38.0666C48.0335 43.8492 48.0335 46.7404 46.2371 48.5369C44.791 49.9829 42.6355 50.2649 38.8335 50.3199V44.9666C38.8335 43.5336 38.8335 42.817 38.5253 42.2833C38.3235 41.9337 38.0331 41.6433 37.6835 41.4415C37.1497 41.1333 36.4332 41.1333 35.0001 41.1333C33.5671 41.1333 32.8505 41.1333 32.3168 41.4415C31.9672 41.6433 31.6768 41.9337 31.4749 42.2833C31.1668 42.817 31.1668 43.5336 31.1668 44.9666V50.3199C27.3648 50.2649 25.2093 49.9829 23.7632 48.5369C21.9668 46.7404 21.9668 43.8492 21.9668 38.0666V36.4089C22.9715 36.9743 24.1355 37.2999 25.3885 37.2999C27.224 37.2999 28.9069 36.5891 30.1615 35.4169C31.43 36.5825 33.1241 37.2999 34.9999 37.2999C36.8757 37.2999 38.5699 36.5823 39.8386 35.4166C41.0931 36.5889 42.7761 37.2999 44.6118 37.2999Z" fill="#F72F1E"/>
</svg>
