<svg width="59" height="50" viewBox="0 0 59 50" fill="none" xmlns="http://www.w3.org/2000/svg">
<g id="gradient logo icon" clip-path="url(#clip0_1123_3491)">
<path id="Vector" d="M58.9411 18.891C58.7477 15.8374 57.6942 12.9008 55.9024 10.4206C55.8043 10.2844 55.7041 10.1504 55.6016 10.0185C52.3325 5.76862 47.177 3.65839 41.8222 4.3727C39.1729 4.7111 36.6616 5.74895 34.5463 7.37954C32.4311 9.01014 30.7883 11.1746 29.7868 13.6505C27.9888 18.0149 24.2538 24.9504 18.2451 26.2155C16.0796 26.634 13.8366 26.3315 11.8594 25.3542C9.88213 24.3769 8.27957 22.7787 7.29692 20.8041C6.31427 18.8296 6.00566 16.5874 6.41831 14.4208C6.83096 12.2542 7.94214 10.2824 9.58182 8.8073C11.1897 7.3745 13.2122 6.49116 15.356 6.28543C17.4998 6.07969 19.6534 6.56224 21.5044 7.66309C22.7777 8.42317 24.4254 8.34635 25.4617 7.28551C25.795 6.95176 26.0485 6.5469 26.2031 6.10127C26.3576 5.65563 26.4093 5.18079 26.3543 4.71233C26.2993 4.24387 26.1389 3.79394 25.8852 3.39627C25.6316 2.99861 25.2912 2.66351 24.8896 2.41611C21.9364 0.602412 18.484 -0.227579 15.0291 0.0455905C11.5743 0.31876 8.29518 1.681 5.66374 3.93626C0.908763 7.99491 -1.08215 14.5708 0.576944 20.5958C1.47128 23.8681 3.35986 26.7817 5.9817 28.9342C8.60354 31.0866 11.8292 32.3716 15.2129 32.6116C15.3045 32.6247 15.396 32.6345 15.4892 32.6378C17.1971 32.7278 18.9083 32.5406 20.5563 32.0836C21.0761 31.9431 21.5916 31.7763 22.1027 31.5835C22.2308 31.5371 22.3559 31.4825 22.477 31.42C27.809 29.1692 32.3269 23.9124 35.5634 16.0239C36.1526 14.5655 37.1199 13.2904 38.3656 12.33C39.6114 11.3696 41.0905 10.7585 42.6509 10.5596C44.156 10.343 45.6917 10.5318 47.0995 11.1065C48.5074 11.6811 49.7366 12.6208 50.6603 13.8287C50.7224 13.9104 50.7845 13.9922 50.8466 14.0788C51.9468 15.6048 52.5933 17.4107 52.7117 19.2882C52.9618 23.154 50.5295 26.7582 46.7994 28.0544C41.7748 29.8001 34.5647 32.9222 30.0483 37.5938C29.9406 37.7034 29.8101 37.788 29.666 37.8417C29.522 37.8953 29.368 37.9168 29.2148 37.9045C29.0616 37.8922 28.9129 37.8464 28.7793 37.7704C28.6457 37.6944 28.5304 37.59 28.4415 37.4647C26.668 35.0324 24.2129 33.1706 20.9421 33.0055C19.1065 32.9124 17.3755 34.2233 17.346 36.0606C17.3387 36.475 17.4139 36.8867 17.5674 37.2718C17.7209 37.6568 17.9496 38.0074 18.2401 38.303C18.5306 38.5987 18.8771 38.8335 19.2593 38.9938C19.6416 39.1541 20.052 39.2366 20.4664 39.2365C23.7814 39.2365 25.5941 45.6849 25.8965 47.4094C26.0206 48.1347 26.3971 48.7928 26.9594 49.2675C27.5217 49.7422 28.2336 50.0028 28.9695 50.0035C29.0578 50.0035 29.1477 50.0035 29.2376 49.992C30.0159 49.9258 30.7411 49.5699 31.2698 48.9949C31.7985 48.4199 32.0923 47.6675 32.0932 46.8863C32.0932 41.6557 40.7564 36.7765 48.8508 33.9634C55.2208 31.742 59.371 25.547 58.9411 18.891Z" fill="url(#paint0_linear_1123_3491)"/>
</g>
<defs>
<linearGradient id="paint0_linear_1123_3491" x1="-6.06125e-05" y1="24.9994" x2="58.9721" y2="24.9994" gradientUnits="userSpaceOnUse">
<stop stop-color="#216AFF"/>
<stop offset="1" stop-color="#4AAEFF"/>
</linearGradient>
<clipPath id="clip0_1123_3491">
<rect width="58.9722" height="50" fill="white"/>
</clipPath>
</defs>
</svg>
