<svg width="66" height="44" viewBox="0 0 66 44" fill="none" xmlns="http://www.w3.org/2000/svg">
<path d="M47.6668 22.0002C47.6668 13.9 41.1003 7.3335 33.0002 7.3335C24.9 7.3335 18.3335 13.9 18.3335 22.0002C18.3335 29.3207 23.6969 35.3884 30.7085 36.4887V26.2397H26.9845V22.0002H30.7085V18.7689C30.7085 15.0931 32.8981 13.0627 36.2483 13.0627C37.853 13.0627 39.5314 13.3491 39.5314 13.3491V16.9585H37.682C35.86 16.9585 35.2918 18.0891 35.2918 19.2489V22.0002H39.3595L38.7093 26.2397H35.2918V36.4887C42.3034 35.3884 47.6668 29.3207 47.6668 22.0002Z" fill="#1877F2"/>
<path d="M38.7091 26.2396L39.3594 22H35.2917V19.2488C35.2917 18.0889 35.8599 16.9583 37.6818 16.9583H39.5313V13.349C39.5313 13.349 37.8528 13.0625 36.2481 13.0625C32.898 13.0625 30.7083 15.0929 30.7083 18.7688V22H26.9844V26.2396H30.7083V36.4885C31.4664 36.6073 32.2326 36.6669 33 36.6667C33.7796 36.6667 34.5449 36.6056 35.2917 36.4885V26.2396H38.7091Z" fill="white"/>
</svg>
