<svg width="30" height="30" viewBox="0 0 30 30" fill="none" xmlns="http://www.w3.org/2000/svg">
<mask id="mask0_1070_3722" style="mask-type:luminance" maskUnits="userSpaceOnUse" x="0" y="0" width="30" height="30">
<path d="M28.9773 12.2727H15V18.0682H23.0454C22.2954 21.75 19.1591 23.8636 15 23.8636C10.0909 23.8636 6.13636 19.9091 6.13636 15C6.13636 10.0909 10.0909 6.13636 15 6.13636C17.1136 6.13636 19.0227 6.88638 20.5227 8.11365L24.8864 3.75C22.2273 1.43182 18.8182 0 15 0C6.68182 0 0 6.68182 0 15C0 23.3182 6.68182 30 15 30C22.5 30 29.3182 24.5455 29.3182 15C29.3182 14.1136 29.1818 13.1591 28.9773 12.2727Z" fill="white"/>
</mask>
<g mask="url(#mask0_1070_3722)">
<path d="M-1.36377 23.8635V6.13623L10.2271 14.9999L-1.36377 23.8635Z" fill="#FBBC05"/>
</g>
<mask id="mask1_1070_3722" style="mask-type:luminance" maskUnits="userSpaceOnUse" x="0" y="0" width="30" height="30">
<path d="M28.9773 12.2727H15V18.0682H23.0454C22.2954 21.75 19.1591 23.8636 15 23.8636C10.0909 23.8636 6.13636 19.9091 6.13636 15C6.13636 10.0909 10.0909 6.13636 15 6.13636C17.1136 6.13636 19.0227 6.88638 20.5227 8.11365L24.8864 3.75C22.2273 1.43182 18.8182 0 15 0C6.68182 0 0 6.68182 0 15C0 23.3182 6.68182 30 15 30C22.5 30 29.3182 24.5455 29.3182 15C29.3182 14.1136 29.1818 13.1591 28.9773 12.2727Z" fill="white"/>
</mask>
<g mask="url(#mask1_1070_3722)">
<path d="M-1.36377 6.13623L10.2271 14.9999L14.9999 10.8408L31.3635 8.18169V-1.36377H-1.36377V6.13623Z" fill="#EA4335"/>
</g>
<mask id="mask2_1070_3722" style="mask-type:luminance" maskUnits="userSpaceOnUse" x="0" y="0" width="30" height="30">
<path d="M28.9773 12.2727H15V18.0682H23.0454C22.2954 21.75 19.1591 23.8636 15 23.8636C10.0909 23.8636 6.13636 19.9091 6.13636 15C6.13636 10.0909 10.0909 6.13636 15 6.13636C17.1136 6.13636 19.0227 6.88638 20.5227 8.11365L24.8864 3.75C22.2273 1.43182 18.8182 0 15 0C6.68182 0 0 6.68182 0 15C0 23.3182 6.68182 30 15 30C22.5 30 29.3182 24.5455 29.3182 15C29.3182 14.1136 29.1818 13.1591 28.9773 12.2727Z" fill="white"/>
</mask>
<g mask="url(#mask2_1070_3722)">
<path d="M-1.36377 23.8635L19.0908 8.18169L24.4771 8.8635L31.3635 -1.36377V31.3635H-1.36377V23.8635Z" fill="#34A853"/>
</g>
<mask id="mask3_1070_3722" style="mask-type:luminance" maskUnits="userSpaceOnUse" x="0" y="0" width="30" height="30">
<path d="M28.9773 12.2727H15V18.0682H23.0454C22.2954 21.75 19.1591 23.8636 15 23.8636C10.0909 23.8636 6.13636 19.9091 6.13636 15C6.13636 10.0909 10.0909 6.13636 15 6.13636C17.1136 6.13636 19.0227 6.88638 20.5227 8.11365L24.8864 3.75C22.2273 1.43182 18.8182 0 15 0C6.68182 0 0 6.68182 0 15C0 23.3182 6.68182 30 15 30C22.5 30 29.3182 24.5455 29.3182 15C29.3182 14.1136 29.1818 13.1591 28.9773 12.2727Z" fill="white"/>
</mask>
<g mask="url(#mask3_1070_3722)">
<path d="M31.3636 31.3635L10.2273 14.9999L7.5 12.9544L31.3636 6.13623V31.3635Z" fill="#4285F4"/>
</g>
</svg>
