<svg width="34" height="34" viewBox="0 0 34 34" fill="none" xmlns="http://www.w3.org/2000/svg">
<path d="M5.6665 16.9998C5.6665 12.7257 5.6665 10.5887 6.99429 9.26089C8.32207 7.93311 10.4591 7.93311 14.7332 7.93311H19.2665C23.5406 7.93311 25.6776 7.93311 27.0054 9.26089C28.3332 10.5887 28.3332 12.7257 28.3332 16.9998C28.3332 21.2738 28.3332 23.4109 27.0054 24.7387C25.6776 26.0664 23.5406 26.0664 19.2665 26.0664H14.7332C10.4591 26.0664 8.32207 26.0664 6.99429 24.7387C5.6665 23.4109 5.6665 21.2738 5.6665 16.9998Z" stroke="#8F9FB7" stroke-width="1.5"/>
<path d="M10.2002 12.4668L12.6469 14.5058C14.7285 16.2404 15.7692 17.1077 17.0002 17.1077C18.2312 17.1077 19.2719 16.2404 21.3534 14.5058L23.8002 12.4668" stroke="#8F9FB7" stroke-width="1.5" stroke-linecap="round"/>
</svg>
