<svg width="30" height="30" viewBox="0 0 30 30" fill="none" xmlns="http://www.w3.org/2000/svg">
<path d="M30 5.73619C28.8962 6.22571 27.71 6.55656 26.4649 6.70536C27.7358 5.94359 28.7116 4.7374 29.1712 3.30022C27.982 4.00548 26.6648 4.51772 25.2628 4.7938C24.14 3.5976 22.5404 2.8501 20.7702 2.8501C17.371 2.8501 14.6152 5.60583 14.6152 9.00482C14.6152 9.48721 14.6697 9.95698 14.7746 10.4074C9.65928 10.1508 5.12411 7.70042 2.08844 3.97673C1.55865 4.88576 1.25513 5.94304 1.25513 7.07099C1.25513 9.20629 2.34182 11.0902 3.99331 12.1939C2.98431 12.162 2.03533 11.8851 1.20542 11.4241C1.20498 11.4498 1.20498 11.4756 1.20498 11.5015C1.20498 14.4836 3.32657 16.9712 6.14221 17.5366C5.6257 17.6773 5.08197 17.7524 4.52058 17.7524C4.124 17.7524 3.7384 17.7139 3.36267 17.642C4.14584 20.0873 6.41885 21.8668 9.11215 21.9165C7.00571 23.5672 4.35181 24.5512 1.46823 24.5512C0.971469 24.5512 0.48151 24.5221 0 24.4653C2.7238 26.2116 5.95907 27.2304 9.43487 27.2304C20.7558 27.2304 26.9466 17.8519 26.9466 9.71853C26.9466 9.45166 26.9406 9.18621 26.9288 8.9223C28.1312 8.05453 29.1748 6.97047 30 5.73619Z" fill="#55ACEE"/>
</svg>
